<mxfile host="app.diagrams.net" modified="2023-12-28T02:58:01.862Z" agent="Mozilla/5.0 (Macintosh; Intel Mac OS X 10_15_7) AppleWebKit/537.36 (KHTML, like Gecko) Chrome/120.0.0.0 Safari/537.36" version="21.6.5" etag="Wpg18gsaZcFfJRw2VJPh" type="github">
  <diagram name="第 1 页" id="LcebrRXmgturhJVC_wbj">
    <mxGraphModel>
      <root>
        <mxCell id="0" />
        <mxCell id="1" parent="0" />
      </root>
    </mxGraphModel>
  </diagram>
</mxfile>
